<svg xmlns="http://www.w3.org/2000/svg" viewBox="0 0 512 512"><rect width="512" height="512" rx="36" fill="#fbf6ea"/><g transform="scale(2)"><circle cx="128" cy="128" r="98" stroke="#151a24" stroke-width="9" fill="none" /></g><g transform="translate(112 112) scale(1.125)"><g data-seed="ENO-07" data-transform="CLOSED"><g data-transform="CLOSED"><g><path d="M50 128 Q78 58 128 58 Q180 58 206 128 Q180 198 128 198 Q76 198 50 128 Z" stroke="#151a24" stroke-width="12" stroke-linecap="round" stroke-linejoin="round" fill="none" /><path d="M84 170 Q118 122 170 82" stroke="#151a24" stroke-width="12" stroke-linecap="round" stroke-linejoin="round" fill="none" /><circle cx="128" cy="128" r="12" stroke="#151a24" stroke-width="6" fill="none" /></g><circle cx="128" cy="128" r="108" fill="none" stroke="#151a24" stroke-width="8"/></g><g data-role="transform-witness" aria-label="transform witness"><circle cx="18" cy="18" r="4.2" fill="#8f5e24"/><circle cx="33" cy="18" r="4.2" fill="none" stroke="#8f5e24" stroke-width="2"/><circle cx="48" cy="18" r="4.2" fill="#8f5e24"/></g></g></g><g transform="translate(38 292) scale(0.32)"><circle cx="128" cy="128" r="58" stroke="#75654f" stroke-width="7" fill="none" /><line x1="128" y1="128" x2="182.72820377276207" y2="84.35571386988866" stroke="#151a24" stroke-width="9" stroke-linecap="round" /><circle cx="182.72820377276207" cy="84.35571386988866" r="8" stroke="#8f5e24" stroke-width="4" fill="#8f5e24" /></g><g transform="translate(38 360) scale(0.32)"><circle cx="128" cy="128" r="58" stroke="#151a24" stroke-width="9" fill="none" /><path d="M88 128 H168" stroke="#151a24" stroke-width="7" stroke-linecap="round" stroke-linejoin="round" fill="none" /></g><g transform="translate(106 360) scale(0.32)"><path d="M66 174 Q128 48 190 174" stroke="#151a24" stroke-width="10" stroke-linecap="round" stroke-linejoin="round" fill="none" /><circle cx="128" cy="150" r="12" stroke="#151a24" stroke-width="6" fill="none" /></g><g transform="translate(192 18) scale(0.5)"><line x1="68" y1="128" x2="188" y2="128" stroke="#151a24" stroke-width="11" stroke-linecap="round" /></g><g transform="translate(360 48) scale(0.42)"><circle cx="128" cy="128" r="74" stroke="#75654f" stroke-width="7" fill="none" /><line x1="172.34621756054176" y1="146.3688047535243" x2="194.51932634081265" y2="155.55320713028647" stroke="#151a24" stroke-width="9" stroke-linecap="round" /><circle cx="194.51932634081265" cy="155.55320713028647" r="9" stroke="#8f5e24" stroke-width="4" fill="#8f5e24" /></g><g transform="translate(354 352) scale(0.45)"><circle cx="128" cy="128" r="14" stroke="#75654f" stroke-width="6" fill="none" /></g></svg>