<svg xmlns="http://www.w3.org/2000/svg" viewBox="0 0 512 512" role="img"><title>變化</title><metadata>{"id": "eml.empsl:glyph:change-v01", "version": "0.2", "frame": "SEM-PROCESS", "seed": "ENO-12", "phonology": ["ONSET-B", "HU-QICHI", "RIME-AN"], "tone": "T4", "phase": "PH16-11", "operator": "OP-UNARY", "reading": "ㄅㄧㄢˋ", "gloss": "變化", "concept_id": "eml.concept:item:change-process", "recipe_sha256": "9f1aa66920ee6f30e849eb7f8c8b770664a44c6e9b8e68477fa37c7ba44d1b25"}</metadata><rect width="512" height="512" fill="#fbf6ea" rx="36"/><g transform="translate(0 0) scale(2)"><path d="M48 128 Q128 22 208 128 Q128 234 48 128 Z" stroke="#151a24" stroke-width="9" stroke-linecap="round" stroke-linejoin="round" fill="none" /></g><g transform="translate(112 112) scale(1.125)"><g transform="rotate(180 128 128)"><path d="M66 206 Q58 108 112 60 Q152 26 190 66 Q216 96 184 126 Q156 152 110 132 Q74 116 82 82" stroke="#151a24" stroke-width="12" stroke-linecap="round" stroke-linejoin="round" fill="none" /><line x1="108" y1="132" x2="182" y2="206" stroke="#151a24" stroke-width="12" stroke-linecap="round" /></g></g><g transform="translate(38 292) scale(0.32)"><circle cx="128" cy="128" r="58" stroke="#75654f" stroke-width="7" fill="none" /><line x1="128" y1="128" x2="128.0" y2="58.0" stroke="#151a24" stroke-width="9" stroke-linecap="round" /><circle cx="128" cy="128" r="8" stroke="#8f5e24" stroke-width="4" fill="#8f5e24" /></g><g transform="translate(38 360) scale(0.32)"><line x1="128" y1="64" x2="128" y2="192" stroke="#151a24" stroke-width="10" stroke-linecap="round" /><circle cx="128" cy="82" r="8" stroke="#8f5e24" stroke-width="4" fill="#8f5e24" /></g><g transform="translate(106 360) scale(0.32)"><path d="M66 174 Q128 54 190 174" stroke="#151a24" stroke-width="10" stroke-linecap="round" stroke-linejoin="round" fill="none" /><line x1="128" y1="72" x2="128" y2="188" stroke="#151a24" stroke-width="7" stroke-linecap="round" /></g><g transform="translate(192 18) scale(0.5)"><line x1="74" y1="88" x2="184" y2="164" stroke="#151a24" stroke-width="11" stroke-linecap="round" /></g><g transform="translate(360 48) scale(0.42)"><circle cx="128" cy="128" r="74" stroke="#75654f" stroke-width="7" fill="none" /><line x1="83.65378243945824" y1="146.36880475352433" x2="61.480673659187374" y2="155.5532071302865" stroke="#151a24" stroke-width="9" stroke-linecap="round" /><circle cx="61.480673659187374" cy="155.5532071302865" r="9" stroke="#8f5e24" stroke-width="4" fill="#8f5e24" /></g><g transform="translate(354 352) scale(0.45)"><circle cx="128" cy="128" r="18" stroke="#151a24" stroke-width="8" fill="none" /><line x1="128" y1="62" x2="128" y2="98" stroke="#151a24" stroke-width="12" stroke-linecap="round" /></g></svg>